<svg width="31" height="20" viewBox="0 0 31 20" fill="none" xmlns="http://www.w3.org/2000/svg">
<path d="M30.5266 13.4882L28.89 11.8516C28.5561 11.5177 28.0217 11.5177 27.6877 11.8516C27.5541 11.9852 27.4873 12.1188 27.4539 12.2858C27.4205 11.5177 27.2201 10.8163 26.9529 10.1483C27.2869 9.71412 27.5875 9.21313 27.7879 8.71215C28.0885 8.01078 28.2221 7.2426 28.2221 6.47443C28.2221 4.83789 27.5541 3.36834 26.4853 2.33298C25.4166 1.29762 23.947 0.629639 22.3439 0.629639C21.2417 0.629639 20.2063 0.930228 19.3046 1.46461C18.67 1.86539 18.1022 2.36638 17.6346 2.96756C16.2987 2.06579 14.6955 1.53141 12.9922 1.53141C10.9549 1.53141 9.08454 2.26618 7.64839 3.50194C6.37924 4.6041 5.44407 6.07364 5.00988 7.81038C3.70733 7.97738 2.53837 8.57856 1.67 9.44693C0.634639 10.4823 6.10352e-05 11.9184 6.10352e-05 13.4882C6.10352e-05 15.0579 0.634639 16.4941 1.67 17.5294C2.70537 18.5648 4.14152 19.1994 5.71126 19.1994H20.9077C22.7113 19.1994 24.3144 18.4646 25.5168 17.2956C26.6857 16.1267 27.4205 14.4901 27.4205 12.6866V12.6532C27.4539 12.7868 27.5207 12.9204 27.6543 13.0206L29.3242 14.6905C29.6582 15.0245 30.1926 15.0245 30.5266 14.6905C30.8606 14.3566 30.8606 13.8222 30.5266 13.4882ZM24.3478 16.0933C23.4794 16.9617 22.2771 17.496 20.9745 17.496H5.74466C4.6425 17.496 3.64053 17.0619 2.90576 16.3271C2.17098 15.5923 1.7368 14.5903 1.7368 13.4882C1.7368 12.386 2.17098 11.3841 2.90576 10.6493C3.64053 9.91451 4.6425 9.48032 5.74466 9.48032C5.87825 9.48032 6.04525 9.44693 6.14544 9.38013C6.34584 9.24653 6.47943 9.04614 6.51283 8.81235C6.74662 7.2426 7.54819 5.83985 8.68375 4.87129C9.81931 3.90272 11.3223 3.30154 12.9254 3.30154C14.2948 3.30154 15.5639 3.73573 16.6327 4.4705C17.4342 5.03828 18.1356 5.77306 18.6032 6.67482C18.4696 6.74162 18.336 6.77502 18.2024 6.84182C17.3674 7.20921 16.6327 7.77698 15.9981 8.44496C15.6975 8.81235 15.7309 9.34673 16.0649 9.64732C16.4323 9.94791 16.9667 9.91451 17.2673 9.58052C17.7348 9.07954 18.2692 8.67875 18.8704 8.37816C19.4716 8.11097 20.1396 7.94398 20.8409 7.94398C22.1769 7.94398 23.3458 8.47836 24.2142 9.34673C25.0826 10.2151 25.617 11.4175 25.617 12.72C25.7172 14.056 25.1828 15.2249 24.3478 16.0933ZM26.1847 8.07757C26.1179 8.24457 26.0511 8.41156 25.9509 8.54516C25.8173 8.37816 25.6838 8.24457 25.5502 8.11097C24.3812 6.94201 22.7447 6.20724 20.9411 6.20724C20.7741 6.20724 20.5737 6.20724 20.4067 6.24064C20.0394 5.43907 19.5384 4.70429 18.9372 4.10312C19.2712 3.63553 19.7054 3.26814 20.173 2.96756C20.8075 2.56677 21.5423 2.36638 22.3105 2.36638C23.446 2.36638 24.5148 2.83396 25.2496 3.56873C26.0177 4.33691 26.4519 5.37227 26.4519 6.50783C26.4853 7.07561 26.3851 7.60999 26.1847 8.07757Z" fill="#454545"/>
</svg>
